<?xml version="1.0" encoding="UTF-8" standalone="no"?>
<!-- Generator: Adobe Illustrator 16.0.0, SVG Export Plug-In . SVG Version: 6.00 Build 0)  -->

<svg
   xmlns:dc="http://purl.org/dc/elements/1.1/"
   xmlns:cc="http://creativecommons.org/ns#"
   xmlns:rdf="http://www.w3.org/1999/02/22-rdf-syntax-ns#"
   xmlns:svg="http://www.w3.org/2000/svg"
   xmlns="http://www.w3.org/2000/svg"
   xmlns:sodipodi="http://sodipodi.sourceforge.net/DTD/sodipodi-0.dtd"
   xmlns:inkscape="http://www.inkscape.org/namespaces/inkscape"
   version="1.1"
   id="Capa_1"
   x="0px"
   y="0px"
   width="45.16px"
   height="45.16px"
   viewBox="0 0 45.16 45.16"
   style="enable-background:new 0 0 45.16 45.16;"
   xml:space="preserve"
   inkscape:version="0.91 r13725"
   sodipodi:docname="sunny182.svg"><metadata
     id="metadata77"><rdf:RDF><cc:Work
         rdf:about=""><dc:format>image/svg+xml</dc:format><dc:type
           rdf:resource="http://purl.org/dc/dcmitype/StillImage" /></cc:Work></rdf:RDF></metadata><defs
     id="defs75" /><sodipodi:namedview
     pagecolor="#ffffff"
     bordercolor="#666666"
     borderopacity="1"
     objecttolerance="10"
     gridtolerance="10"
     guidetolerance="10"
     inkscape:pageopacity="0"
     inkscape:pageshadow="2"
     inkscape:window-width="681"
     inkscape:window-height="745"
     id="namedview73"
     showgrid="false"
     inkscape:zoom="7.3904872"
     inkscape:cx="11.426676"
     inkscape:cy="16.403238"
     inkscape:window-x="0"
     inkscape:window-y="21"
     inkscape:window-maximized="0"
     inkscape:current-layer="Capa_1" /><g
     id="g3"
     style="fill:#cccccc;fill-opacity:1"><g
       id="g5"
       style="fill:#cccccc;fill-opacity:1"><path
         d="M22.58,11.269c-6.237,0-11.311,5.075-11.311,11.312s5.074,11.312,11.311,11.312c6.236,0,11.311-5.074,11.311-11.312    S28.816,11.269,22.58,11.269z"
         id="path7"
         style="fill:#cccccc;fill-opacity:1" /><g
         id="g9"
         style="fill:#cccccc;fill-opacity:1"><g
           id="g11"
           style="fill:#cccccc;fill-opacity:1"><path
             d="M22.58,7.944c-1.219,0-2.207-0.988-2.207-2.206V2.207C20.373,0.988,21.361,0,22.58,0c1.219,0,2.207,0.988,2.207,2.207      v3.531C24.787,6.956,23.798,7.944,22.58,7.944z"
             id="path13"
             style="fill:#cccccc;fill-opacity:1" /></g><g
           id="g15"
           style="fill:#cccccc;fill-opacity:1"><path
             d="M22.58,37.215c-1.219,0-2.207,0.988-2.207,2.207v3.53c0,1.22,0.988,2.208,2.207,2.208c1.219,0,2.207-0.988,2.207-2.208      v-3.53C24.787,38.203,23.798,37.215,22.58,37.215z"
             id="path17"
             style="fill:#cccccc;fill-opacity:1" /></g><g
           id="g19"
           style="fill:#cccccc;fill-opacity:1"><path
             d="M32.928,12.231c-0.861-0.862-0.861-2.259,0-3.121l2.497-2.497c0.861-0.861,2.259-0.861,3.121,0      c0.862,0.862,0.862,2.26,0,3.121l-2.497,2.497C35.188,13.093,33.791,13.093,32.928,12.231z"
             id="path21"
             style="fill:#cccccc;fill-opacity:1" /></g><g
           id="g23"
           style="fill:#cccccc;fill-opacity:1"><path
             d="M12.231,32.93c-0.862-0.863-2.259-0.863-3.121,0l-2.497,2.496c-0.861,0.861-0.862,2.26,0,3.121      c0.862,0.861,2.26,0.861,3.121,0l2.497-2.498C13.093,35.188,13.093,33.79,12.231,32.93z"
             id="path25"
             style="fill:#cccccc;fill-opacity:1" /></g><g
           id="g27"
           style="fill:#cccccc;fill-opacity:1"><path
             d="M37.215,22.58c0-1.219,0.988-2.207,2.207-2.207h3.531c1.219,0,2.207,0.988,2.207,2.207c0,1.219-0.988,2.206-2.207,2.206      h-3.531C38.203,24.786,37.215,23.799,37.215,22.58z"
             id="path29"
             style="fill:#cccccc;fill-opacity:1" /></g><g
           id="g31"
           style="fill:#cccccc;fill-opacity:1"><path
             d="M7.944,22.58c0-1.219-0.988-2.207-2.207-2.207h-3.53C0.988,20.373,0,21.361,0,22.58c0,1.219,0.988,2.206,2.207,2.206      h3.531C6.956,24.786,7.944,23.799,7.944,22.58z"
             id="path33"
             style="fill:#cccccc;fill-opacity:1" /></g><g
           id="g35"
           style="fill:#cccccc;fill-opacity:1"><path
             d="M32.928,32.93c0.862-0.861,2.26-0.861,3.121,0l2.497,2.497c0.862,0.86,0.862,2.259,0,3.12s-2.259,0.861-3.121,0      l-2.497-2.497C32.066,35.188,32.066,33.791,32.928,32.93z"
             id="path37"
             style="fill:#cccccc;fill-opacity:1" /></g><g
           id="g39"
           style="fill:#cccccc;fill-opacity:1"><path
             d="M12.231,12.231c0.862-0.862,0.862-2.259,0-3.121L9.734,6.614c-0.862-0.862-2.259-0.862-3.121,0      c-0.862,0.861-0.862,2.259,0,3.12l2.497,2.497C9.972,13.094,11.369,13.094,12.231,12.231z"
             id="path41"
             style="fill:#cccccc;fill-opacity:1" /></g></g></g></g><g
     id="g43" /><g
     id="g45" /><g
     id="g47" /><g
     id="g49" /><g
     id="g51" /><g
     id="g53" /><g
     id="g55" /><g
     id="g57" /><g
     id="g59" /><g
     id="g61" /><g
     id="g63" /><g
     id="g65" /><g
     id="g67" /><g
     id="g69" /><g
     id="g71" /></svg>