<?xml version="1.0" encoding="UTF-8" standalone="no"?>
<!-- Generator: Adobe Illustrator 16.0.0, SVG Export Plug-In . SVG Version: 6.00 Build 0)  -->

<svg
   xmlns:dc="http://purl.org/dc/elements/1.1/"
   xmlns:cc="http://creativecommons.org/ns#"
   xmlns:rdf="http://www.w3.org/1999/02/22-rdf-syntax-ns#"
   xmlns:svg="http://www.w3.org/2000/svg"
   xmlns="http://www.w3.org/2000/svg"
   xmlns:sodipodi="http://sodipodi.sourceforge.net/DTD/sodipodi-0.dtd"
   xmlns:inkscape="http://www.inkscape.org/namespaces/inkscape"
   version="1.1"
   id="Capa_1"
   x="0px"
   y="0px"
   width="60"
   height="60"
   viewBox="0 0 60 60"
   xml:space="preserve"
   inkscape:version="0.91 r13725"
   sodipodi:docname="sunny18.svg"><metadata
     id="metadata77"><rdf:RDF><cc:Work
         rdf:about=""><dc:format>image/svg+xml</dc:format><dc:type
           rdf:resource="http://purl.org/dc/dcmitype/StillImage" /><dc:title /></cc:Work></rdf:RDF></metadata><defs
     id="defs75" /><sodipodi:namedview
     pagecolor="#ffffff"
     bordercolor="#666666"
     borderopacity="1"
     objecttolerance="10"
     gridtolerance="10"
     guidetolerance="10"
     inkscape:pageopacity="0"
     inkscape:pageshadow="2"
     inkscape:window-width="773"
     inkscape:window-height="745"
     id="namedview73"
     showgrid="false"
     inkscape:zoom="5.2258636"
     inkscape:cx="16.76501"
     inkscape:cy="19.578818"
     inkscape:window-x="-1"
     inkscape:window-y="20"
     inkscape:window-maximized="0"
     inkscape:current-layer="Capa_1"
     borderlayer="true" /><g
     id="g3"
     style="fill:#888888;fill-opacity:1"
     transform="translate(7.42,7.42)"><g
       id="g5"
       style="fill:#888888;fill-opacity:1"><path
         d="m 22.58,11.269 c -6.237,0 -11.311,5.075 -11.311,11.312 0,6.237 5.074,11.312 11.311,11.312 6.236,0 11.311,-5.074 11.311,-11.312 0,-6.238 -5.075,-11.312 -11.311,-11.312 z"
         id="path7"
         style="fill:#888888;fill-opacity:1"
         inkscape:connector-curvature="0" /><g
         id="g9"
         style="fill:#888888;fill-opacity:1"><g
           id="g11"
           style="fill:#888888;fill-opacity:1"><path
             d="m 22.58,7.944 c -1.219,0 -2.207,-0.988 -2.207,-2.206 l 0,-3.531 C 20.373,0.988 21.361,0 22.58,0 c 1.219,0 2.207,0.988 2.207,2.207 l 0,3.531 c 0,1.218 -0.989,2.206 -2.207,2.206 z"
             id="path13"
             style="fill:#888888;fill-opacity:1"
             inkscape:connector-curvature="0" /></g><g
           id="g15"
           style="fill:#888888;fill-opacity:1"><path
             d="m 22.58,37.215 c -1.219,0 -2.207,0.988 -2.207,2.207 l 0,3.53 c 0,1.22 0.988,2.208 2.207,2.208 1.219,0 2.207,-0.988 2.207,-2.208 l 0,-3.53 c 0,-1.219 -0.989,-2.207 -2.207,-2.207 z"
             id="path17"
             style="fill:#888888;fill-opacity:1"
             inkscape:connector-curvature="0" /></g><g
           id="g19"
           style="fill:#888888;fill-opacity:1"><path
             d="m 32.928,12.231 c -0.861,-0.862 -0.861,-2.259 0,-3.121 l 2.497,-2.497 c 0.861,-0.861 2.259,-0.861 3.121,0 0.862,0.862 0.862,2.26 0,3.121 l -2.497,2.497 c -0.861,0.862 -2.258,0.862 -3.121,0 z"
             id="path21"
             style="fill:#888888;fill-opacity:1"
             inkscape:connector-curvature="0" /></g><g
           id="g23"
           style="fill:#888888;fill-opacity:1"><path
             d="m 12.231,32.93 c -0.862,-0.863 -2.259,-0.863 -3.121,0 l -2.497,2.496 c -0.861,0.861 -0.862,2.26 0,3.121 0.862,0.861 2.26,0.861 3.121,0 l 2.497,-2.498 c 0.862,-0.861 0.862,-2.259 0,-3.119 z"
             id="path25"
             style="fill:#888888;fill-opacity:1"
             inkscape:connector-curvature="0" /></g><g
           id="g27"
           style="fill:#888888;fill-opacity:1"><path
             d="m 37.215,22.58 c 0,-1.219 0.988,-2.207 2.207,-2.207 l 3.531,0 c 1.219,0 2.207,0.988 2.207,2.207 0,1.219 -0.988,2.206 -2.207,2.206 l -3.531,0 c -1.219,0 -2.207,-0.987 -2.207,-2.206 z"
             id="path29"
             style="fill:#888888;fill-opacity:1"
             inkscape:connector-curvature="0" /></g><g
           id="g31"
           style="fill:#888888;fill-opacity:1"><path
             d="m 7.944,22.58 c 0,-1.219 -0.988,-2.207 -2.207,-2.207 l -3.53,0 C 0.988,20.373 0,21.361 0,22.58 c 0,1.219 0.988,2.206 2.207,2.206 l 3.531,0 c 1.218,0 2.206,-0.987 2.206,-2.206 z"
             id="path33"
             style="fill:#888888;fill-opacity:1"
             inkscape:connector-curvature="0" /></g><g
           id="g35"
           style="fill:#888888;fill-opacity:1"><path
             d="m 32.928,32.93 c 0.862,-0.861 2.26,-0.861 3.121,0 l 2.497,2.497 c 0.862,0.86 0.862,2.259 0,3.12 -0.862,0.861 -2.259,0.861 -3.121,0 L 32.928,36.05 c -0.862,-0.862 -0.862,-2.259 0,-3.12 z"
             id="path37"
             style="fill:#888888;fill-opacity:1"
             inkscape:connector-curvature="0" /></g><g
           id="g39"
           style="fill:#888888;fill-opacity:1"><path
             d="m 12.231,12.231 c 0.862,-0.862 0.862,-2.259 0,-3.121 L 9.734,6.614 c -0.862,-0.862 -2.259,-0.862 -3.121,0 -0.862,0.861 -0.862,2.259 0,3.12 l 2.497,2.497 c 0.862,0.863 2.259,0.863 3.121,0 z"
             id="path41"
             style="fill:#888888;fill-opacity:1"
             inkscape:connector-curvature="0" /></g></g></g></g><g
     id="g43"
     transform="translate(0,14.84)"
     style="fill:#888888;fill-opacity:1" /><g
     id="g45"
     transform="translate(0,14.84)"
     style="fill:#888888;fill-opacity:1" /><g
     id="g47"
     transform="translate(0,14.84)"
     style="fill:#888888;fill-opacity:1" /><g
     id="g49"
     transform="translate(0,14.84)"
     style="fill:#888888;fill-opacity:1" /><g
     id="g51"
     transform="translate(0,14.84)"
     style="fill:#888888;fill-opacity:1" /><g
     id="g53"
     transform="translate(0,14.84)"
     style="fill:#888888;fill-opacity:1" /><g
     id="g55"
     transform="translate(0,14.84)"
     style="fill:#888888;fill-opacity:1" /><g
     id="g57"
     transform="translate(0,14.84)"
     style="fill:#888888;fill-opacity:1" /><g
     id="g59"
     transform="translate(0,14.84)"
     style="fill:#888888;fill-opacity:1" /><g
     id="g61"
     transform="translate(0,14.84)"
     style="fill:#888888;fill-opacity:1" /><g
     id="g63"
     transform="translate(0,14.84)"
     style="fill:#888888;fill-opacity:1" /><g
     id="g65"
     transform="translate(0,14.84)"
     style="fill:#888888;fill-opacity:1" /><g
     id="g67"
     transform="translate(0,14.84)"
     style="fill:#888888;fill-opacity:1" /><g
     id="g69"
     transform="translate(0,14.84)"
     style="fill:#888888;fill-opacity:1" /><g
     id="g71"
     transform="translate(0,14.84)"
     style="fill:#888888;fill-opacity:1" /></svg>